<?xml version="1.0" encoding="UTF-8"?><svg id="a" xmlns="http://www.w3.org/2000/svg" viewBox="0 0 612 216"><polygon points="371.84 194.37 384.2 152.65 387.07 152.65 374.71 194.37 371.84 194.37" fill="#d1d3d4" stroke-width="0"/><polygon points="377.51 194.37 389.87 152.65 392.74 152.65 380.39 194.37 377.51 194.37" fill="#d1d3d4" stroke-width="0"/><polygon points="366.16 194.37 378.52 152.65 381.39 152.65 369.03 194.37 366.16 194.37" fill="#d1d3d4" stroke-width="0"/><polygon points="360.49 194.37 372.85 152.65 375.72 152.65 363.36 194.37 360.49 194.37" fill="#d1d3d4" stroke-width="0"/><polygon points="354.81 194.37 367.17 152.65 370.04 152.65 357.68 194.37 354.81 194.37" fill="#d1d3d4" stroke-width="0"/><polygon points="349.14 194.37 361.49 152.65 364.37 152.65 352.01 194.37 349.14 194.37" fill="#d1d3d4" stroke-width="0"/><polygon points="343.46 194.37 355.82 152.65 358.69 152.65 346.33 194.37 343.46 194.37" fill="#d1d3d4" stroke-width="0"/><polygon points="337.78 194.37 350.14 152.65 353.01 152.65 340.66 194.37 337.78 194.37" fill="#d1d3d4" stroke-width="0"/><polygon points="332.11 194.37 344.47 152.65 347.34 152.65 334.98 194.37 332.11 194.37" fill="#d1d3d4" stroke-width="0"/><polygon points="326.43 194.37 338.79 152.65 341.66 152.65 329.3 194.37 326.43 194.37" fill="#d1d3d4" stroke-width="0"/><polygon points="320.76 194.37 333.12 152.65 335.99 152.65 323.63 194.37 320.76 194.37" fill="#d1d3d4" stroke-width="0"/><polygon points="315.08 194.37 327.44 152.65 330.31 152.65 317.95 194.37 315.08 194.37" fill="#d1d3d4" stroke-width="0"/><polygon points="309.41 194.37 321.76 152.65 324.64 152.65 312.28 194.37 309.41 194.37" fill="#d1d3d4" stroke-width="0"/><polygon points="303.73 194.37 316.09 152.65 318.96 152.65 306.6 194.37 303.73 194.37" fill="#d1d3d4" stroke-width="0"/><polygon points="298.05 194.37 310.41 152.65 313.28 152.65 300.93 194.37 298.05 194.37" fill="#d1d3d4" stroke-width="0"/><polygon points="292.38 194.37 304.74 152.65 307.61 152.65 295.25 194.37 292.38 194.37" fill="#d1d3d4" stroke-width="0"/><polygon points="286.7 194.37 299.06 152.65 301.93 152.65 289.58 194.37 286.7 194.37" fill="#d1d3d4" stroke-width="0"/><polygon points="281.03 194.37 293.39 152.65 296.26 152.65 283.9 194.37 281.03 194.37" fill="#d1d3d4" stroke-width="0"/><polygon points="275.35 194.37 287.71 152.65 290.58 152.65 278.22 194.37 275.35 194.37" fill="#d1d3d4" stroke-width="0"/><polygon points="269.68 194.37 282.03 152.65 284.91 152.65 272.55 194.37 269.68 194.37" fill="#d1d3d4" stroke-width="0"/><polygon points="264 194.37 276.36 152.65 279.23 152.65 266.87 194.37 264 194.37" fill="#d1d3d4" stroke-width="0"/><polygon points="258.33 194.37 270.68 152.65 273.55 152.65 261.2 194.37 258.33 194.37" fill="#d1d3d4" stroke-width="0"/><polygon points="252.65 194.37 265.01 152.65 267.88 152.65 255.52 194.37 252.65 194.37" fill="#d1d3d4" stroke-width="0"/><polygon points="246.97 194.37 259.33 152.65 262.2 152.65 249.85 194.37 246.97 194.37" fill="#d1d3d4" stroke-width="0"/><polygon points="241.3 194.37 253.66 152.65 256.53 152.65 244.17 194.37 241.3 194.37" fill="#d1d3d4" stroke-width="0"/><polygon points="235.62 194.37 247.98 152.65 250.85 152.65 238.49 194.37 235.62 194.37" fill="#d1d3d4" stroke-width="0"/><polygon points="229.95 194.37 242.3 152.65 245.18 152.65 232.82 194.37 229.95 194.37" fill="#d1d3d4" stroke-width="0"/><polygon points="224.27 194.37 236.63 152.65 239.5 152.65 227.14 194.37 224.27 194.37" fill="#d1d3d4" stroke-width="0"/><path d="M146.77,22.24h14.29c11.83,0,13.98,3.23,13.98,17.67s-2.3,17.67-13.98,17.67h-5.68v27.19h-8.6s0-62.53,0-62.53ZM155.53,50.36h4.46c5.84,0,6.45-.92,6.45-10.45s-.61-10.45-6.45-10.45h-4.46v20.89Z" fill="#010101" stroke-width="0"/><path d="M186.41,22.24h23.66v7.22h-15.06v19.67h13.98v7.22h-13.98v21.36h14.9v7.22h-23.51V22.24Z" fill="#010101" stroke-width="0"/><path d="M220.52,22.24h13.52c12.6,0,13.98,3.38,13.98,17.05,0,8.45-1.08,12.14-8.3,14.29v.15c5.84.61,7.84,3.69,7.84,9.53v13.67c0,2.3,0,5.38.46,7.99h-8.14c-.92-1.54-1.08-3.07-1.08-5.68v-14.13c0-5.84-1.08-7.53-6.76-7.53h-2.92v27.19h-8.6V22.24ZM229.12,50.36h2.3c6.91,0,7.84-1.23,7.84-10.6s-.46-10.14-5.84-10.14h-4.15v20.74h-.15Z" fill="#010101" stroke-width="0"/><path d="M259.7,22.24h23.66v7.22h-14.9v19.67h13.98v7.22h-13.98v28.42h-8.6V22.24h-.15Z" fill="#010101" stroke-width="0"/><path d="M293.65,22.24h8.6v62.68h-8.6V22.24Z" fill="#010101" stroke-width="0"/><path d="M313.62,38.22c0-8.76,2.92-16.44,14.6-16.44,8.6,0,12.6,4.3,12.6,11.37v6.3h-8.14v-4.3c0-3.99-1.38-6.45-5.07-6.45-4.46,0-5.38,3.23-5.38,10.75v30.73c0,7.37,2.3,8.6,5.07,8.6,3.23,0,5.22-2.3,5.22-7.53v-4.3h8.14v6.91c0,6.61-2.77,11.68-12.75,11.68-10.91,0-14.44-5.84-14.44-15.52v-31.8h.15Z" fill="#010101" stroke-width="0"/><path d="M351.42,22.24h8.6v62.68h-8.6V22.24Z" fill="#010101" stroke-width="0"/><path d="M371.85,22.24h23.66v7.22h-14.9v19.67h13.98v7.22h-13.98v21.36h14.9v7.22h-23.66V22.24Z" fill="#010101" stroke-width="0"/><path d="M405.96,22.24h11.98l10.29,52.08h.15V22.24h8.14v62.68h-12.6l-10.29-53.47h-.15v53.47h-7.68V22.24h.15Z" fill="#010101" stroke-width="0"/><path d="M446.98,22.24h29.5v7.22h-10.45v55.31h-8.6V29.47h-10.45v-7.22Z" fill="#010101" stroke-width="0"/><path d="M482.61,29c2,0,3.69-1.69,3.69-3.69s-1.54-3.69-3.69-3.69c-2,0-3.69,1.69-3.69,3.69,0,2.15,1.69,3.69,3.69,3.69h0ZM482.61,28.39c-1.69,0-3.07-1.38-3.07-3.07s1.38-2.92,3.07-2.92,2.92,1.38,2.92,2.92c0,1.69-1.38,3.07-2.92,3.07h0ZM482.3,25.62c.31,0,.46,0,.61.15s.15.61.31.92c0,.31.15.46.15.77h.92c-.15-.46-.15-.77-.31-1.23,0-.46-.15-.77-.77-.77h0c.61-.15.92-.46.92-.92,0-.92-.77-1.23-1.54-1.23h-1.38v4.3h.61v-1.84h.46v-.15ZM481.84,25.01v-1.08h.77c.46,0,.61.15.61.46s-.15.61-.77.61h-.61Z" fill="#010101" stroke-width="0"/><path d="M160.46,133.06h-3.36c-.39,0-.7-.1-.94-.29s-.42-.44-.54-.74l-3-7.75h-14.4l-3,7.75c-.1.27-.28.51-.54.72-.25.21-.57.31-.94.31h-3.36l12.84-32.1h4.41l12.84,32.1ZM139.42,121.14h11.98l-5.04-13.06c-.33-.81-.65-1.81-.96-3.02-.16.61-.32,1.18-.48,1.69-.16.52-.31.97-.46,1.36l-5.04,13.04Z" fill="#cc2127" stroke="#cc2127" stroke-miterlimit="10" stroke-width="2"/><path d="M195.16,126.42c.24,0,.46.1.65.29l1.7,1.86c-1.31,1.52-2.91,2.71-4.78,3.56-1.87.85-4.13,1.28-6.78,1.28-2.31,0-4.41-.4-6.29-1.2-1.88-.8-3.49-1.92-4.82-3.36-1.33-1.44-2.36-3.17-3.09-5.19-.73-2.02-1.1-4.23-1.1-6.65s.39-4.64,1.18-6.65c.78-2.02,1.89-3.75,3.3-5.2,1.42-1.45,3.12-2.57,5.1-3.37,1.98-.8,4.16-1.2,6.55-1.2s4.39.37,6.1,1.1c1.71.73,3.23,1.72,4.56,2.98l-1.41,1.99c-.1.15-.22.27-.36.37-.13.1-.33.15-.58.15-.19,0-.4-.07-.62-.21-.22-.14-.47-.32-.77-.53-.3-.21-.65-.43-1.05-.67-.4-.24-.88-.46-1.43-.67-.55-.21-1.19-.38-1.93-.53-.73-.14-1.58-.21-2.53-.21-1.72,0-3.29.29-4.72.88-1.43.59-2.65,1.43-3.69,2.52-1.03,1.09-1.83,2.42-2.41,3.99-.57,1.57-.86,3.32-.86,5.26s.29,3.79.86,5.35,1.36,2.89,2.35,3.98c.99,1.08,2.17,1.91,3.53,2.48,1.36.57,2.82.85,4.39.85.96,0,1.81-.06,2.58-.17.76-.11,1.47-.29,2.12-.53s1.25-.54,1.81-.91c.56-.37,1.12-.8,1.69-1.31.25-.22.5-.34.74-.34Z" fill="#cc2127" stroke="#cc2127" stroke-miterlimit="10" stroke-width="2"/><path d="M234.81,126.42c.24,0,.46.1.65.29l1.7,1.86c-1.31,1.52-2.91,2.71-4.78,3.56-1.87.85-4.13,1.28-6.78,1.28-2.31,0-4.41-.4-6.29-1.2-1.88-.8-3.49-1.92-4.82-3.36-1.33-1.44-2.36-3.17-3.09-5.19-.73-2.02-1.1-4.23-1.1-6.65s.39-4.64,1.18-6.65c.78-2.02,1.89-3.75,3.3-5.2,1.42-1.45,3.12-2.57,5.1-3.37,1.98-.8,4.16-1.2,6.55-1.2s4.39.37,6.1,1.1c1.71.73,3.23,1.72,4.56,2.98l-1.41,1.99c-.1.15-.22.27-.36.37-.13.1-.33.15-.58.15-.19,0-.4-.07-.62-.21-.22-.14-.47-.32-.77-.53-.3-.21-.65-.43-1.05-.67-.4-.24-.88-.46-1.43-.67-.55-.21-1.19-.38-1.93-.53-.73-.14-1.58-.21-2.53-.21-1.72,0-3.29.29-4.72.88-1.43.59-2.65,1.43-3.69,2.52-1.03,1.09-1.83,2.42-2.41,3.99-.57,1.57-.86,3.32-.86,5.26s.29,3.79.86,5.35,1.36,2.89,2.35,3.98c.99,1.08,2.17,1.91,3.53,2.48,1.36.57,2.82.85,4.39.85.96,0,1.81-.06,2.58-.17.76-.11,1.47-.29,2.12-.53s1.25-.54,1.81-.91c.56-.37,1.12-.8,1.69-1.31.25-.22.5-.34.74-.34Z" fill="#cc2127" stroke="#cc2127" stroke-miterlimit="10" stroke-width="2"/><path d="M271.62,100.95v3.54h-15.41v10.66h12.48v3.4h-12.48v10.95h15.41v3.54h-19.78v-32.1h19.78Z" fill="#cc2127" stroke="#cc2127" stroke-miterlimit="10" stroke-width="2"/><path d="M291.17,129.4h13.89v3.65h-18.23v-32.1h4.35v28.45Z" fill="#cc2127" stroke="#cc2127" stroke-miterlimit="10" stroke-width="2"/><path d="M338.6,100.95v3.54h-15.41v10.66h12.48v3.4h-12.48v10.95h15.41v3.54h-19.78v-32.1h19.78Z" fill="#cc2127" stroke="#cc2127" stroke-miterlimit="10" stroke-width="2"/><path d="M358.58,119.66v13.4h-4.32v-32.1h9.07c2.03,0,3.79.21,5.26.62,1.48.41,2.7,1,3.66,1.78s1.68,1.71,2.14,2.81c.46,1.1.69,2.33.69,3.69,0,1.14-.18,2.2-.54,3.18-.36.99-.88,1.87-1.56,2.65-.68.78-1.51,1.45-2.49,2s-2.09.97-3.33,1.25c.54.31,1.02.77,1.43,1.37l9.36,12.75h-3.85c-.79,0-1.37-.31-1.75-.92l-8.33-11.47c-.25-.36-.53-.62-.83-.77-.3-.16-.75-.24-1.34-.24h-3.29ZM358.58,116.5h4.55c1.27,0,2.39-.15,3.35-.46.96-.31,1.77-.74,2.42-1.3.65-.56,1.14-1.23,1.47-2,.33-.78.49-1.64.49-2.58,0-1.91-.63-3.35-1.89-4.32-1.26-.97-3.14-1.46-5.63-1.46h-4.75v12.12Z" fill="#cc2127" stroke="#cc2127" stroke-miterlimit="10" stroke-width="2"/><path d="M418.03,133.06h-3.36c-.39,0-.7-.1-.94-.29-.24-.19-.42-.44-.54-.74l-3-7.75h-14.4l-3,7.75c-.1.27-.28.51-.54.72-.25.21-.57.31-.94.31h-3.36l12.84-32.1h4.41l12.84,32.1ZM397,121.14h11.99l-5.04-13.06c-.33-.81-.65-1.81-.96-3.02-.17.61-.33,1.18-.48,1.69-.16.52-.31.97-.46,1.36l-5.04,13.04Z" fill="#cc2127" stroke="#cc2127" stroke-miterlimit="10" stroke-width="2"/><path d="M449.96,100.95v3.65h-10.37v28.45h-4.35v-28.45h-10.42v-3.65h25.13Z" fill="#cc2127" stroke="#cc2127" stroke-miterlimit="10" stroke-width="2"/><path d="M483.27,100.95v3.54h-15.41v10.66h12.48v3.4h-12.48v10.95h15.41v3.54h-19.78v-32.1h19.78Z" fill="#cc2127" stroke="#cc2127" stroke-miterlimit="10" stroke-width="2"/><polygon points="509.67 80.17 500.71 85.54 500.71 74.8 509.67 80.17" fill="#bcbec0" stroke-width="0"/><polygon points="497.13 80.17 488.18 85.54 488.18 74.8 497.13 80.17" fill="#bcbec0" stroke-width="0"/><polygon points="484.6 80.17 475.64 85.54 475.64 74.8 484.6 80.17" fill="#bcbec0" stroke-width="0"/><polygon points="136.36 27.24 127.4 32.61 127.4 21.87 136.36 27.24" fill="#bcbec0" stroke-width="0"/><polygon points="123.82 27.24 114.87 32.61 114.87 21.87 123.82 27.24" fill="#bcbec0" stroke-width="0"/><polygon points="111.29 27.24 102.33 32.61 102.33 21.87 111.29 27.24" fill="#bcbec0" stroke-width="0"/><path d="M253.55,156.13c1.48,0,2.83.22,4.06.65,1.23.44,2.28,1.05,3.15,1.85.87.8,1.55,1.76,2.04,2.88.49,1.12.73,2.37.73,3.75,0,1.18-.17,2.28-.52,3.28-.35,1.01-.81,1.97-1.4,2.88-.58.92-1.27,1.8-2.05,2.66-.78.86-1.61,1.73-2.46,2.62l-7.23,7.39c.71-.21,1.41-.37,2.09-.48s1.33-.17,1.95-.17h8.23c.59,0,1.06.17,1.41.5.35.33.52.77.52,1.32v3.28h-22.01v-1.82c0-.37.08-.75.23-1.15.16-.4.4-.77.74-1.11l9.74-9.76c.81-.83,1.54-1.62,2.19-2.37.64-.75,1.18-1.5,1.62-2.24.44-.74.77-1.49,1-2.25.23-.76.34-1.56.34-2.41,0-.77-.11-1.45-.33-2.03-.22-.58-.54-1.08-.95-1.48-.41-.4-.91-.7-1.48-.9-.57-.2-1.21-.3-1.92-.3-1.32,0-2.4.33-3.25,1s-1.45,1.56-1.79,2.68c-.16.56-.41.97-.73,1.21-.33.24-.74.37-1.24.37-.22,0-.47-.02-.73-.07l-2.88-.51c.22-1.54.65-2.89,1.29-4.05.64-1.16,1.43-2.13,2.39-2.91.95-.78,2.05-1.36,3.28-1.75,1.23-.39,2.56-.59,3.98-.59Z" stroke-width="0"/><path d="M299.44,172.53c0,2.8-.3,5.23-.9,7.29-.6,2.06-1.43,3.77-2.49,5.11-1.06,1.35-2.31,2.35-3.75,3.01-1.44.66-3,.99-4.67.99s-3.22-.33-4.65-.99c-1.43-.66-2.67-1.66-3.72-3.01-1.05-1.35-1.87-3.05-2.46-5.11-.59-2.06-.89-4.49-.89-7.29s.3-5.24.89-7.3c.59-2.06,1.41-3.76,2.46-5.1,1.05-1.35,2.29-2.35,3.72-3.01,1.43-.66,2.98-.99,4.65-.99s3.23.33,4.67.99c1.44.66,2.69,1.66,3.75,3.01,1.06,1.35,1.89,3.05,2.49,5.1.6,2.06.9,4.49.9,7.3ZM293.78,172.53c0-2.32-.17-4.25-.51-5.77-.34-1.52-.8-2.74-1.36-3.64s-1.22-1.53-1.96-1.9c-.74-.36-1.51-.54-2.31-.54s-1.54.18-2.27.54-1.38.99-1.94,1.9c-.56.9-1.01,2.12-1.34,3.64-.33,1.52-.5,3.45-.5,5.77s.17,4.25.5,5.77c.33,1.52.78,2.74,1.34,3.64.56.9,1.21,1.53,1.94,1.9.73.36,1.49.54,2.27.54s1.57-.18,2.31-.54c.74-.36,1.39-.99,1.96-1.9.57-.9,1.02-2.12,1.36-3.64.34-1.52.51-3.45.51-5.77Z" stroke-width="0"/><path d="M322.78,156.13c1.48,0,2.83.22,4.06.65,1.23.44,2.28,1.05,3.15,1.85.87.8,1.55,1.76,2.04,2.88.49,1.12.73,2.37.73,3.75,0,1.18-.17,2.28-.52,3.28-.35,1.01-.81,1.97-1.4,2.88-.58.92-1.27,1.8-2.05,2.66-.78.86-1.61,1.73-2.46,2.62l-7.23,7.39c.71-.21,1.41-.37,2.09-.48s1.33-.17,1.95-.17h8.23c.59,0,1.06.17,1.41.5.35.33.52.77.52,1.32v3.28h-22.01v-1.82c0-.37.08-.75.23-1.15.16-.4.4-.77.74-1.11l9.74-9.76c.81-.83,1.54-1.62,2.19-2.37.64-.75,1.18-1.5,1.62-2.24.44-.74.77-1.49,1-2.25.23-.76.34-1.56.34-2.41,0-.77-.11-1.45-.33-2.03-.22-.58-.54-1.08-.95-1.48-.41-.4-.91-.7-1.48-.9-.57-.2-1.21-.3-1.92-.3-1.32,0-2.4.33-3.25,1s-1.45,1.56-1.79,2.68c-.16.56-.41.97-.73,1.21-.33.24-.74.37-1.24.37-.22,0-.47-.02-.73-.07l-2.88-.51c.22-1.54.65-2.89,1.29-4.05.64-1.16,1.43-2.13,2.39-2.91.95-.78,2.05-1.36,3.28-1.75,1.23-.39,2.56-.59,3.98-.59Z" stroke-width="0"/><path d="M364.94,176.48h4.04v3.17c0,.3-.1.55-.29.77s-.47.32-.84.32h-2.91v7.83h-4.79v-7.83h-13.54c-.37,0-.7-.11-.98-.34-.28-.23-.46-.51-.53-.85l-.55-2.77,15.2-20.3h5.19v20.01ZM360.15,165.98c0-.47.01-.98.04-1.53.03-.55.08-1.12.16-1.71l-9.96,13.74h9.76v-10.5Z" stroke-width="0"/></svg>